<?xml version="1.0" encoding="UTF-8"?>
<svg xmlns="http://www.w3.org/2000/svg" xmlns:xlink="http://www.w3.org/1999/xlink" width="32px" height="32px" viewBox="0 0 32 32" version="1.1">
<g id="surface1">
<path style=" stroke:none;fill-rule:nonzero;fill:rgb(0%,0%,0%);fill-opacity:1;" d="M 14.488281 6.953125 C 14.191406 7.066406 13.855469 7.429688 13.78125 7.710938 C 13.753906 7.820312 13.722656 7.859375 13.578125 7.953125 C 13.257812 8.15625 13.136719 8.425781 13.164062 8.867188 C 13.179688 9.140625 13.246094 9.304688 13.414062 9.457031 C 13.574219 9.613281 13.710938 9.664062 13.976562 9.679688 L 14.21875 9.695312 L 14.453125 10.023438 C 14.695312 10.359375 14.742188 10.4375 14.699219 10.4375 C 14.683594 10.433594 14.582031 10.414062 14.46875 10.390625 C 14.078125 10.304688 13.835938 10.34375 13.644531 10.523438 C 13.429688 10.726562 13.375 11.109375 13.507812 11.460938 C 13.6875 11.945312 14.273438 12.242188 14.734375 12.078125 C 14.800781 12.054688 14.859375 12.039062 14.867188 12.042969 C 14.882812 12.058594 14.644531 12.777344 14.5 13.140625 C 14.335938 13.554688 14.289062 13.710938 14.1875 14.171875 C 14.148438 14.34375 14.0625 14.6875 13.992188 14.9375 C 13.867188 15.367188 13.863281 15.414062 13.863281 15.828125 C 13.859375 16.292969 13.851562 16.265625 14.054688 16.664062 C 14.09375 16.738281 13.445312 16.617188 13.179688 16.503906 C 12.90625 16.382812 12.589844 16.152344 12.386719 15.914062 C 12.148438 15.632812 11.984375 15.300781 11.828125 14.789062 C 11.546875 13.878906 11.320312 13.457031 10.992188 13.214844 C 10.804688 13.082031 10.792969 13.101562 10.953125 13.300781 C 11.210938 13.617188 11.390625 14.054688 11.558594 14.800781 C 11.78125 15.773438 12.132812 16.367188 12.726562 16.761719 C 13.058594 16.980469 13.246094 17.070312 13.53125 17.15625 C 13.960938 17.285156 13.9375 17.292969 12.96875 17.34375 C 12.222656 17.382812 11.726562 17.421875 11.644531 17.457031 C 11.617188 17.464844 11.59375 17.492188 11.59375 17.515625 C 11.59375 17.574219 12.664062 17.601562 15.734375 17.613281 C 18.117188 17.617188 20.210938 17.589844 20.429688 17.542969 C 20.46875 17.539062 20.5 17.507812 20.5 17.484375 C 20.5 17.417969 20.449219 17.414062 19.597656 17.378906 C 19.179688 17.359375 18.828125 17.339844 18.820312 17.335938 C 18.816406 17.328125 18.835938 17.257812 18.871094 17.183594 C 18.90625 17.109375 18.984375 16.816406 19.046875 16.53125 C 19.105469 16.246094 19.210938 15.785156 19.28125 15.5 C 19.347656 15.214844 19.429688 14.835938 19.46875 14.65625 C 19.558594 14.222656 19.710938 13.792969 19.820312 13.671875 C 19.875 13.605469 19.980469 13.542969 20.132812 13.488281 C 20.433594 13.378906 20.558594 13.289062 20.726562 13.070312 C 20.917969 12.820312 21.054688 12.554688 21.117188 12.300781 C 21.242188 11.789062 21.007812 11.132812 20.640625 10.964844 C 20.484375 10.894531 20.425781 10.894531 20.21875 10.960938 C 19.9375 11.050781 19.609375 11.402344 19.378906 11.867188 C 19.105469 12.414062 19.132812 12.957031 19.453125 13.308594 L 19.570312 13.433594 L 19.359375 13.953125 C 19.246094 14.238281 19.105469 14.601562 19.046875 14.757812 C 18.992188 14.914062 18.820312 15.339844 18.679688 15.703125 C 18.332031 16.570312 18.21875 16.917969 18.21875 17.15625 C 18.21875 17.257812 18.210938 17.34375 18.195312 17.34375 C 18.179688 17.34375 18.101562 17.265625 18.019531 17.167969 C 17.933594 17.070312 17.824219 16.976562 17.777344 16.957031 L 17.691406 16.917969 L 17.785156 16.78125 C 18.023438 16.425781 18.117188 16.121094 18.082031 15.800781 C 18.058594 15.597656 17.921875 15.160156 17.773438 14.835938 L 17.679688 14.625 L 17.753906 14.460938 C 17.8125 14.332031 17.828125 14.253906 17.824219 14.050781 C 17.824219 13.828125 17.800781 13.726562 17.632812 13.21875 C 17.523438 12.898438 17.429688 12.570312 17.417969 12.492188 L 17.398438 12.34375 L 17.769531 11.972656 C 17.976562 11.765625 18.21875 11.492188 18.3125 11.367188 C 18.546875 11.042969 18.699219 10.976562 18.945312 11.078125 C 19.007812 11.101562 19.078125 11.125 19.101562 11.121094 C 19.160156 11.117188 18.835938 10.96875 18.773438 10.96875 C 18.742188 10.96875 18.71875 10.949219 18.726562 10.929688 C 18.742188 10.886719 18.839844 10.863281 19.140625 10.820312 C 19.246094 10.804688 19.320312 10.785156 19.3125 10.765625 C 19.292969 10.726562 19.070312 10.726562 18.898438 10.757812 C 18.777344 10.777344 18.777344 10.777344 18.789062 10.679688 C 18.796875 10.585938 18.8125 10.570312 19 10.507812 C 19.222656 10.4375 19.222656 10.421875 19 10.472656 C 18.921875 10.492188 18.835938 10.523438 18.804688 10.554688 C 18.773438 10.582031 18.75 10.585938 18.75 10.570312 C 18.75 10.507812 18.617188 10.40625 18.441406 10.339844 C 18.140625 10.230469 17.648438 9.964844 17.53125 9.855469 C 17.433594 9.765625 17.398438 9.75 17.269531 9.75 C 17.1875 9.75 17.09375 9.738281 17.0625 9.71875 C 17.03125 9.703125 16.945312 9.578125 16.871094 9.445312 C 16.652344 9.046875 16.40625 8.554688 16.40625 8.515625 C 16.40625 8.496094 16.445312 8.449219 16.496094 8.414062 C 16.609375 8.328125 16.71875 8.054688 16.71875 7.847656 C 16.71875 7.601562 16.632812 7.414062 16.441406 7.214844 C 16.316406 7.089844 16.21875 7.023438 16.101562 6.988281 C 15.894531 6.917969 15.648438 6.917969 15.496094 6.984375 C 15.390625 7.035156 15.378906 7.035156 15.277344 6.980469 C 15.132812 6.90625 14.65625 6.886719 14.488281 6.953125 Z M 15.257812 7.273438 L 15.445312 7.355469 L 15.59375 7.273438 C 15.675781 7.226562 15.785156 7.1875 15.832031 7.1875 C 16.042969 7.191406 16.324219 7.398438 16.417969 7.632812 C 16.507812 7.835938 16.464844 8.136719 16.335938 8.242188 C 16.28125 8.289062 16.273438 8.273438 16.234375 8.0625 C 16.199219 7.871094 16.183594 7.84375 16.121094 7.84375 C 16.027344 7.84375 16.039062 8.226562 16.144531 8.515625 C 16.277344 8.882812 16.28125 8.875 16.117188 8.875 C 15.804688 8.875 15.414062 9.007812 15.109375 9.21875 L 14.960938 9.320312 L 14.914062 9.246094 C 14.882812 9.207031 14.703125 9.007812 14.507812 8.808594 C 14.308594 8.601562 14.132812 8.394531 14.105469 8.324219 C 14.023438 8.132812 14.039062 7.828125 14.132812 7.640625 C 14.242188 7.421875 14.386719 7.304688 14.660156 7.207031 C 14.835938 7.144531 15.011719 7.164062 15.257812 7.273438 Z M 14.234375 8.984375 C 14.519531 9.195312 14.6875 9.351562 14.6875 9.414062 C 14.6875 9.46875 14.671875 9.460938 14.566406 9.367188 C 14.5 9.304688 14.339844 9.1875 14.214844 9.101562 C 13.941406 8.914062 13.855469 8.828125 13.824219 8.703125 L 13.804688 8.609375 L 13.957031 8.75 C 14.039062 8.828125 14.164062 8.933594 14.234375 8.984375 Z M 16.488281 9.304688 L 16.648438 9.578125 L 16.472656 9.601562 C 16.121094 9.648438 15.71875 9.804688 15.476562 9.988281 C 15.425781 10.027344 15.367188 10.0625 15.347656 10.0625 C 15.328125 10.0625 15.277344 9.992188 15.234375 9.90625 C 15.191406 9.820312 15.128906 9.722656 15.097656 9.691406 C 15.039062 9.632812 15.039062 9.628906 15.152344 9.523438 C 15.289062 9.390625 15.421875 9.3125 15.6875 9.203125 C 15.859375 9.132812 16.1875 9.039062 16.296875 9.035156 C 16.316406 9.035156 16.398438 9.15625 16.488281 9.304688 Z M 16.929688 9.9375 C 17.148438 9.996094 17.933594 10.367188 18.039062 10.460938 C 18.085938 10.503906 18.085938 10.515625 18.023438 10.632812 C 17.96875 10.738281 17.964844 10.773438 17.996094 10.871094 C 18.015625 10.9375 18.058594 11.015625 18.09375 11.046875 C 18.179688 11.125 18.171875 11.183594 18.058594 11.320312 C 17.882812 11.53125 17.40625 11.773438 17.054688 11.824219 C 16.976562 11.835938 16.90625 11.867188 16.898438 11.886719 C 16.875 11.9375 16.640625 12 16.464844 12 L 16.335938 12 L 16.394531 11.933594 C 16.425781 11.898438 16.570312 11.765625 16.71875 11.644531 C 16.914062 11.480469 16.96875 11.417969 16.925781 11.414062 C 16.847656 11.398438 16.570312 11.589844 16.320312 11.832031 C 16.09375 12.054688 16.054688 12.0625 15.871094 11.933594 C 15.824219 11.902344 15.773438 11.875 15.75 11.875 C 15.683594 11.875 15.429688 11.675781 15.386719 11.585938 C 15.363281 11.539062 15.335938 11.410156 15.320312 11.304688 L 15.304688 11.109375 L 15.128906 11.101562 C 14.9375 11.085938 14.777344 11.027344 14.496094 10.859375 C 14.398438 10.796875 14.230469 10.710938 14.132812 10.667969 L 13.953125 10.589844 L 14.125 10.605469 C 14.21875 10.613281 14.464844 10.644531 14.671875 10.671875 C 15.074219 10.726562 15.390625 10.714844 15.367188 10.644531 C 15.335938 10.570312 15.460938 10.351562 15.597656 10.246094 C 16.039062 9.894531 16.4375 9.800781 16.929688 9.9375 Z M 18.53125 10.65625 C 18.574219 10.765625 18.554688 10.8125 18.453125 10.8125 C 18.253906 10.8125 18.152344 10.675781 18.28125 10.585938 C 18.375 10.519531 18.488281 10.554688 18.53125 10.65625 Z M 14.039062 11.191406 C 14.113281 11.226562 14.289062 11.328125 14.429688 11.414062 C 14.660156 11.554688 14.699219 11.570312 14.820312 11.554688 C 14.894531 11.546875 14.976562 11.527344 15.011719 11.515625 C 15.0625 11.492188 15.066406 11.496094 15.035156 11.554688 C 14.980469 11.652344 14.789062 11.773438 14.605469 11.832031 C 14.320312 11.914062 14.007812 11.789062 13.832031 11.519531 C 13.746094 11.386719 13.699219 11.210938 13.734375 11.160156 C 13.765625 11.105469 13.898438 11.117188 14.039062 11.191406 Z M 20.082031 11.390625 C 20.054688 11.433594 20.011719 11.5 19.988281 11.539062 C 19.835938 11.773438 19.71875 12.535156 19.777344 12.867188 C 19.820312 13.074219 19.890625 13.15625 20.054688 13.15625 C 20.394531 13.15625 20.71875 12.753906 20.835938 12.195312 C 20.878906 11.992188 20.878906 11.90625 20.851562 11.671875 C 20.8125 11.371094 20.820312 11.3125 20.878906 11.457031 C 20.933594 11.585938 20.953125 12.160156 20.90625 12.335938 C 20.773438 12.871094 20.351562 13.28125 19.9375 13.28125 C 19.761719 13.28125 19.539062 13.125 19.460938 12.945312 C 19.40625 12.820312 19.398438 12.757812 19.414062 12.457031 C 19.429688 12.070312 19.460938 11.964844 19.640625 11.730469 C 19.757812 11.582031 20.054688 11.3125 20.105469 11.3125 C 20.117188 11.3125 20.109375 11.347656 20.082031 11.390625 Z M 17.15625 12.605469 C 17.15625 12.648438 17.214844 12.847656 17.285156 13.050781 C 17.585938 13.914062 17.625 14.175781 17.503906 14.414062 C 17.449219 14.519531 16.964844 15.007812 16.851562 15.070312 C 16.726562 15.148438 16.777344 14.914062 17 14.445312 C 17.171875 14.085938 17.199219 13.890625 17.105469 13.753906 C 17.039062 13.664062 17.023438 13.683594 16.9375 13.953125 C 16.898438 14.070312 16.789062 14.335938 16.699219 14.535156 C 16.558594 14.835938 16.53125 14.925781 16.53125 15.070312 C 16.53125 15.292969 16.570312 15.398438 16.671875 15.4375 C 16.796875 15.484375 16.925781 15.414062 17.1875 15.144531 C 17.316406 15.011719 17.429688 14.90625 17.445312 14.90625 C 17.488281 14.90625 17.621094 15.179688 17.699219 15.429688 C 17.816406 15.796875 17.8125 16.074219 17.695312 16.328125 C 17.613281 16.496094 17.386719 16.75 17.316406 16.75 C 17.300781 16.75 17.265625 16.757812 17.238281 16.769531 C 17.167969 16.792969 17.171875 16.710938 17.25 16.507812 C 17.304688 16.367188 17.332031 16.21875 17.304688 16.21875 C 17.300781 16.21875 17.203125 16.304688 17.09375 16.414062 C 16.976562 16.527344 16.808594 16.652344 16.703125 16.707031 C 16.53125 16.789062 16.488281 16.796875 16.1875 16.796875 C 15.890625 16.796875 15.839844 16.789062 15.679688 16.710938 C 15.445312 16.59375 15.226562 16.367188 15.101562 16.117188 C 14.980469 15.867188 14.976562 15.828125 15.078125 15.96875 C 15.167969 16.09375 15.171875 16.085938 15.113281 15.867188 C 15.070312 15.707031 15.054688 15.523438 15.058594 15.351562 C 15.0625 15.261719 15.222656 15.179688 15.339844 15.203125 C 15.386719 15.210938 15.492188 15.269531 15.578125 15.328125 C 15.765625 15.460938 15.914062 15.476562 15.988281 15.359375 C 16.023438 15.300781 16.035156 15.226562 16.027344 15.035156 C 16.015625 14.796875 16.007812 14.773438 15.75 14.269531 C 15.605469 13.984375 15.476562 13.75 15.464844 13.75 C 15.429688 13.75 15.410156 13.980469 15.433594 14.109375 C 15.445312 14.179688 15.523438 14.355469 15.601562 14.5 C 15.734375 14.742188 15.835938 15.050781 15.800781 15.085938 C 15.789062 15.09375 15.632812 14.957031 15.441406 14.78125 C 15.027344 14.394531 14.960938 14.269531 14.960938 13.90625 C 14.960938 13.445312 15.113281 13.140625 15.425781 12.984375 C 15.617188 12.882812 15.675781 12.882812 16.21875 12.910156 C 16.445312 12.921875 16.460938 12.914062 16.667969 12.804688 C 16.789062 12.734375 16.9375 12.640625 16.996094 12.59375 C 17.117188 12.492188 17.15625 12.496094 17.15625 12.605469 Z M 15.003906 17.191406 C 15.0625 17.210938 15.128906 17.242188 15.148438 17.265625 C 15.183594 17.296875 15.164062 17.308594 15.050781 17.339844 C 14.84375 17.390625 14.769531 17.386719 14.792969 17.320312 C 14.8125 17.273438 14.808594 17.273438 14.757812 17.320312 C 14.636719 17.421875 14.5 17.417969 14.5 17.308594 C 14.5 17.183594 14.78125 17.117188 15.003906 17.191406 Z M 17.765625 17.265625 C 17.808594 17.304688 17.84375 17.355469 17.84375 17.375 C 17.84375 17.429688 17.753906 17.410156 17.6875 17.34375 C 17.652344 17.308594 17.601562 17.28125 17.574219 17.28125 C 17.539062 17.28125 17.527344 17.300781 17.539062 17.34375 C 17.558594 17.414062 17.566406 17.414062 17.398438 17.378906 C 17.324219 17.359375 17.226562 17.335938 17.171875 17.328125 L 17.078125 17.304688 L 17.152344 17.246094 C 17.210938 17.199219 17.273438 17.1875 17.460938 17.1875 C 17.664062 17.1875 17.699219 17.195312 17.765625 17.265625 Z M 17.765625 17.265625 "/>
<path style=" stroke:none;fill-rule:nonzero;fill:rgb(0%,0%,0%);fill-opacity:1;" d="M 15.613281 7.835938 C 15.691406 8.296875 15.851562 8.757812 15.945312 8.773438 C 15.984375 8.78125 16 8.765625 16 8.714844 C 16 8.609375 15.75 7.835938 15.695312 7.773438 C 15.617188 7.6875 15.589844 7.710938 15.613281 7.835938 Z M 15.613281 7.835938 "/>
<path style=" stroke:none;fill-rule:nonzero;fill:rgb(0%,0%,0%);fill-opacity:1;" d="M 15.257812 8.070312 C 15.277344 8.242188 15.457031 8.726562 15.539062 8.828125 C 15.609375 8.917969 15.65625 8.90625 15.65625 8.792969 C 15.65625 8.703125 15.429688 8.113281 15.359375 8.007812 C 15.28125 7.898438 15.242188 7.921875 15.257812 8.070312 Z M 15.257812 8.070312 "/>
<path style=" stroke:none;fill-rule:nonzero;fill:rgb(0%,0%,0%);fill-opacity:1;" d="M 14.625 8.1875 C 14.625 8.363281 15.105469 9.09375 15.222656 9.09375 C 15.277344 9.09375 15.285156 9.082031 15.265625 9.007812 C 15.238281 8.890625 15.066406 8.585938 14.898438 8.355469 C 14.753906 8.160156 14.625 8.082031 14.625 8.1875 Z M 14.625 8.1875 "/>
<path style=" stroke:none;fill-rule:nonzero;fill:rgb(0%,0%,0%);fill-opacity:1;" d="M 16.15625 10.304688 C 16.054688 10.414062 15.992188 10.601562 16.03125 10.699219 C 16.082031 10.835938 16.242188 10.9375 16.398438 10.9375 C 16.515625 10.9375 16.554688 10.921875 16.644531 10.832031 C 16.726562 10.746094 16.75 10.699219 16.75 10.597656 C 16.75 10.492188 16.726562 10.449219 16.632812 10.34375 C 16.523438 10.238281 16.492188 10.21875 16.378906 10.21875 C 16.273438 10.21875 16.226562 10.238281 16.15625 10.304688 Z M 16.5625 10.394531 C 16.5625 10.417969 16.546875 10.429688 16.53125 10.421875 C 16.511719 10.410156 16.507812 10.386719 16.515625 10.371094 C 16.542969 10.328125 16.5625 10.335938 16.5625 10.394531 Z M 16.5625 10.394531 "/>
<path style=" stroke:none;fill-rule:nonzero;fill:rgb(0%,0%,0%);fill-opacity:1;" d="M 16.140625 11.167969 C 16 11.210938 15.625 11.394531 15.582031 11.441406 C 15.519531 11.5 15.710938 11.46875 15.890625 11.390625 C 15.988281 11.347656 16.191406 11.273438 16.339844 11.230469 C 16.703125 11.128906 16.699219 11.132812 16.46875 11.128906 C 16.355469 11.128906 16.210938 11.148438 16.140625 11.167969 Z M 16.140625 11.167969 "/>
<path style=" stroke:none;fill-rule:nonzero;fill:rgb(0%,0%,0%);fill-opacity:1;" d="M 16.515625 11.339844 C 16.398438 11.386719 16.257812 11.449219 16.203125 11.476562 C 16.085938 11.539062 15.8125 11.773438 15.8125 11.816406 C 15.8125 11.871094 15.886719 11.839844 16.089844 11.707031 C 16.203125 11.632812 16.386719 11.519531 16.5 11.460938 C 16.898438 11.242188 16.902344 11.191406 16.515625 11.339844 Z M 16.515625 11.339844 "/>
<path style=" stroke:none;fill-rule:nonzero;fill:rgb(0%,0%,0%);fill-opacity:1;" d="M 17.03125 9.492188 C 17.054688 9.5 17.105469 9.523438 17.140625 9.539062 C 17.203125 9.566406 17.203125 9.566406 17.144531 9.519531 C 17.109375 9.492188 17.058594 9.46875 17.035156 9.472656 C 16.992188 9.472656 16.992188 9.476562 17.03125 9.492188 Z M 17.03125 9.492188 "/>
<path style=" stroke:none;fill-rule:nonzero;fill:rgb(0%,0%,0%);fill-opacity:1;" d="M 20.113281 18.035156 C 20.003906 18.164062 20.007812 18.265625 20.136719 18.394531 C 20.273438 18.53125 20.382812 18.535156 20.503906 18.402344 C 20.617188 18.277344 20.617188 18.183594 20.496094 18.046875 C 20.367188 17.898438 20.226562 17.894531 20.113281 18.035156 Z M 20.113281 18.035156 "/>
<path style=" stroke:none;fill-rule:nonzero;fill:rgb(0%,0%,0%);fill-opacity:1;" d="M 25.949219 18.023438 C 25.8125 18.050781 25.785156 18.117188 25.824219 18.367188 C 25.875 18.683594 25.914062 18.6875 25.898438 18.367188 C 25.890625 18.101562 25.890625 18.09375 25.96875 18.078125 C 26.101562 18.050781 26.289062 18.082031 26.320312 18.136719 C 26.335938 18.167969 26.34375 18.273438 26.335938 18.378906 C 26.332031 18.507812 26.339844 18.5625 26.367188 18.5625 C 26.394531 18.5625 26.40625 18.496094 26.40625 18.34375 C 26.40625 18.128906 26.402344 18.121094 26.304688 18.0625 C 26.210938 18.003906 26.101562 17.992188 25.949219 18.023438 Z M 25.949219 18.023438 "/>
<path style=" stroke:none;fill-rule:nonzero;fill:rgb(0%,0%,0%);fill-opacity:1;" d="M 26.101562 18.148438 C 26.007812 18.160156 26.007812 18.164062 26.035156 18.257812 C 26.050781 18.316406 26.0625 18.414062 26.0625 18.476562 C 26.0625 18.625 26.113281 18.628906 26.136719 18.484375 C 26.15625 18.394531 26.171875 18.375 26.234375 18.375 C 26.277344 18.375 26.3125 18.367188 26.3125 18.363281 C 26.3125 18.339844 26.21875 18.125 26.210938 18.132812 C 26.207031 18.132812 26.160156 18.140625 26.101562 18.148438 Z M 26.21875 18.269531 C 26.21875 18.292969 26.195312 18.3125 26.171875 18.3125 C 26.125 18.3125 26.105469 18.246094 26.144531 18.210938 C 26.175781 18.179688 26.21875 18.214844 26.21875 18.269531 Z M 26.21875 18.269531 "/>
<path style=" stroke:none;fill-rule:nonzero;fill:rgb(0%,0%,0%);fill-opacity:1;" d="M 14.613281 18.621094 C 14.597656 18.648438 14.328125 18.65625 13.777344 18.65625 C 13.335938 18.65625 12.96875 18.664062 12.96875 18.679688 C 12.96875 18.691406 12.996094 18.726562 13.027344 18.761719 C 13.085938 18.824219 13.089844 18.890625 13.101562 19.75 C 13.109375 20.648438 13.109375 20.675781 13.039062 20.78125 L 12.972656 20.890625 L 14.714844 20.890625 L 14.726562 20.578125 C 14.730469 20.40625 14.726562 20.253906 14.722656 20.238281 C 14.714844 20.222656 14.679688 20.242188 14.644531 20.289062 C 14.582031 20.367188 14.5625 20.367188 14.085938 20.382812 L 13.59375 20.40625 L 13.59375 19.960938 L 13.992188 19.984375 C 14.210938 19.996094 14.402344 20.019531 14.421875 20.035156 C 14.484375 20.097656 14.5 20.050781 14.5 19.777344 L 14.5 19.492188 L 13.59375 19.523438 L 13.59375 19.117188 L 14.0625 19.132812 C 14.507812 19.140625 14.53125 19.144531 14.578125 19.210938 C 14.679688 19.351562 14.703125 19.300781 14.695312 18.960938 C 14.683594 18.65625 14.65625 18.546875 14.613281 18.621094 Z M 14.613281 18.621094 "/>
<path style=" stroke:none;fill-rule:nonzero;fill:rgb(0%,0%,0%);fill-opacity:1;" d="M 21.175781 18.664062 C 21.164062 18.703125 21.15625 18.867188 21.15625 19.023438 C 21.15625 19.289062 21.164062 19.316406 21.210938 19.304688 C 21.242188 19.300781 21.285156 19.257812 21.304688 19.210938 C 21.347656 19.125 21.351562 19.121094 21.570312 19.132812 L 21.796875 19.140625 L 21.785156 19.921875 C 21.777344 20.523438 21.765625 20.71875 21.730469 20.773438 C 21.707031 20.808594 21.6875 20.847656 21.6875 20.855469 C 21.6875 20.867188 21.863281 20.875 22.078125 20.882812 C 22.292969 20.886719 22.46875 20.882812 22.46875 20.878906 C 22.46875 20.867188 22.4375 20.832031 22.398438 20.789062 C 22.332031 20.714844 22.328125 20.695312 22.320312 19.914062 L 22.308594 19.117188 L 22.457031 19.136719 C 22.539062 19.148438 22.648438 19.15625 22.710938 19.15625 C 22.792969 19.15625 22.820312 19.171875 22.84375 19.234375 C 22.859375 19.277344 22.894531 19.3125 22.921875 19.3125 C 22.960938 19.3125 22.96875 19.257812 22.96875 18.976562 L 22.96875 18.640625 L 22.167969 18.648438 C 21.699219 18.65625 21.332031 18.648438 21.28125 18.628906 C 21.203125 18.601562 21.191406 18.605469 21.175781 18.664062 Z M 21.175781 18.664062 "/>
<path style=" stroke:none;fill-rule:nonzero;fill:rgb(0%,0%,0%);fill-opacity:1;" d="M 8.515625 18.6875 C 8.003906 18.855469 7.636719 19.398438 7.695312 19.910156 C 7.734375 20.230469 7.976562 20.601562 8.265625 20.765625 C 8.445312 20.871094 8.789062 20.945312 8.988281 20.921875 C 9.203125 20.898438 9.421875 20.789062 9.617188 20.609375 L 9.789062 20.460938 L 9.605469 20.292969 C 9.433594 20.132812 9.425781 20.128906 9.382812 20.1875 C 9.273438 20.34375 8.921875 20.4375 8.683594 20.375 C 8.429688 20.304688 8.21875 20.023438 8.21875 19.742188 C 8.21875 19.445312 8.539062 19.128906 8.84375 19.125 C 9.003906 19.125 9.273438 19.257812 9.335938 19.375 C 9.390625 19.46875 9.4375 19.496094 9.4375 19.433594 C 9.4375 19.417969 9.511719 19.324219 9.601562 19.226562 L 9.765625 19.054688 L 9.640625 18.945312 C 9.320312 18.664062 8.890625 18.5625 8.515625 18.6875 Z M 8.515625 18.6875 "/>
<path style=" stroke:none;fill-rule:nonzero;fill:rgb(0%,0%,0%);fill-opacity:1;" d="M 10.523438 18.648438 C 10.355469 18.652344 10.21875 18.664062 10.21875 18.671875 C 10.21875 18.679688 10.253906 18.71875 10.292969 18.757812 L 10.371094 18.835938 L 10.371094 19.765625 C 10.375 20.648438 10.371094 20.695312 10.3125 20.78125 C 10.277344 20.828125 10.25 20.875 10.25 20.882812 C 10.25 20.890625 10.417969 20.898438 10.625 20.898438 C 10.832031 20.898438 11 20.890625 11 20.882812 C 11 20.875 10.964844 20.828125 10.921875 20.777344 C 10.851562 20.691406 10.847656 20.664062 10.851562 20.328125 L 10.851562 19.96875 L 11.199219 19.96875 C 11.390625 19.96875 11.601562 19.976562 11.664062 19.988281 L 11.78125 20.007812 L 11.78125 20.339844 C 11.78125 20.617188 11.773438 20.6875 11.71875 20.773438 C 11.683594 20.832031 11.65625 20.882812 11.65625 20.890625 C 11.65625 20.898438 11.824219 20.90625 12.035156 20.90625 L 12.410156 20.90625 L 12.347656 20.824219 C 12.285156 20.742188 12.28125 20.707031 12.28125 19.789062 L 12.28125 18.832031 L 12.46875 18.636719 L 12.054688 18.648438 C 11.664062 18.664062 11.558594 18.679688 11.648438 18.710938 C 11.761719 18.75 11.78125 18.816406 11.78125 19.15625 C 11.78125 19.34375 11.773438 19.503906 11.757812 19.511719 C 11.742188 19.519531 11.53125 19.519531 11.285156 19.507812 L 10.835938 19.492188 L 10.851562 19.152344 C 10.859375 18.855469 10.867188 18.808594 10.929688 18.742188 C 11.023438 18.644531 11.019531 18.625 10.914062 18.632812 C 10.867188 18.632812 10.691406 18.644531 10.523438 18.648438 Z M 10.523438 18.648438 "/>
<path style=" stroke:none;fill-rule:nonzero;fill:rgb(0%,0%,0%);fill-opacity:1;" d="M 16.101562 18.648438 C 15.648438 18.652344 15.28125 18.667969 15.28125 18.679688 C 15.28125 18.695312 15.308594 18.726562 15.34375 18.757812 C 15.402344 18.808594 15.40625 18.851562 15.40625 19.761719 C 15.40625 20.664062 15.402344 20.714844 15.34375 20.789062 C 15.308594 20.835938 15.28125 20.875 15.28125 20.882812 C 15.28125 20.886719 15.457031 20.894531 15.671875 20.894531 C 15.886719 20.890625 16.0625 20.882812 16.0625 20.871094 C 16.0625 20.863281 16.027344 20.820312 15.984375 20.78125 C 15.910156 20.710938 15.90625 20.691406 15.90625 20.351562 L 15.90625 19.996094 L 16.289062 20.019531 C 16.558594 20.035156 16.679688 20.054688 16.695312 20.082031 C 16.757812 20.179688 16.78125 20.109375 16.78125 19.835938 L 16.78125 19.546875 L 16.34375 19.554688 L 15.90625 19.570312 L 15.90625 19.125 L 16.375 19.125 C 16.664062 19.125 16.84375 19.136719 16.84375 19.15625 C 16.84375 19.195312 16.960938 19.3125 17 19.3125 C 17.023438 19.3125 17.023438 19.289062 16.996094 19.246094 C 16.976562 19.207031 16.964844 19.070312 16.976562 18.902344 C 16.980469 18.726562 16.972656 18.628906 16.953125 18.632812 C 16.9375 18.636719 16.554688 18.644531 16.101562 18.648438 Z M 16.101562 18.648438 "/>
<path style=" stroke:none;fill-rule:nonzero;fill:rgb(0%,0%,0%);fill-opacity:1;" d="M 18.296875 18.667969 C 18.070312 18.726562 17.925781 18.804688 17.757812 18.953125 C 17.292969 19.367188 17.273438 20.125 17.710938 20.554688 C 18.039062 20.871094 18.546875 20.992188 18.925781 20.835938 C 19.089844 20.769531 19.496094 20.507812 19.496094 20.46875 C 19.496094 20.460938 19.40625 20.386719 19.300781 20.308594 C 19.121094 20.179688 19.101562 20.171875 19.070312 20.21875 C 19.007812 20.3125 18.773438 20.40625 18.59375 20.40625 C 18.171875 20.40625 17.878906 20.074219 17.914062 19.636719 C 17.953125 19.144531 18.648438 18.945312 19.039062 19.320312 C 19.109375 19.382812 19.167969 19.433594 19.167969 19.429688 C 19.171875 19.425781 19.195312 19.367188 19.226562 19.304688 C 19.257812 19.242188 19.320312 19.160156 19.375 19.121094 C 19.425781 19.082031 19.46875 19.039062 19.46875 19.027344 C 19.46875 19.015625 19.367188 18.933594 19.238281 18.851562 C 18.914062 18.632812 18.648438 18.582031 18.296875 18.667969 Z M 18.296875 18.667969 "/>
<path style=" stroke:none;fill-rule:nonzero;fill:rgb(0%,0%,0%);fill-opacity:1;" d="M 20.617188 18.640625 C 20.609375 18.648438 20.445312 18.660156 20.253906 18.660156 C 20.0625 18.660156 19.90625 18.664062 19.90625 18.675781 C 19.90625 18.6875 19.941406 18.734375 19.984375 18.789062 L 20.0625 18.882812 L 20.0625 19.773438 C 20.0625 20.625 20.058594 20.679688 19.996094 20.777344 C 19.960938 20.835938 19.9375 20.882812 19.945312 20.886719 C 19.949219 20.886719 20.117188 20.886719 20.324219 20.882812 L 20.695312 20.871094 L 20.621094 20.792969 L 20.546875 20.710938 L 20.546875 18.804688 L 20.632812 18.734375 C 20.679688 18.695312 20.71875 18.648438 20.71875 18.640625 C 20.71875 18.617188 20.640625 18.617188 20.617188 18.640625 Z M 20.617188 18.640625 "/>
<path style=" stroke:none;fill-rule:nonzero;fill:rgb(0%,0%,0%);fill-opacity:1;" d="M 24.070312 18.6875 C 23.78125 18.789062 23.554688 19.007812 23.410156 19.308594 C 23.339844 19.460938 23.328125 19.523438 23.332031 19.75 C 23.339844 20.441406 23.804688 20.90625 24.488281 20.90625 C 24.960938 20.90625 25.398438 20.589844 25.554688 20.140625 C 25.617188 19.953125 25.621094 19.597656 25.566406 19.421875 C 25.367188 18.820312 24.660156 18.476562 24.070312 18.6875 Z M 24.800781 19.226562 C 24.988281 19.355469 25.074219 19.519531 25.078125 19.75 C 25.078125 19.976562 24.972656 20.195312 24.804688 20.304688 C 24.558594 20.46875 24.101562 20.386719 23.9375 20.15625 C 23.902344 20.105469 23.859375 19.988281 23.839844 19.894531 C 23.761719 19.460938 24.035156 19.125 24.472656 19.125 C 24.617188 19.125 24.675781 19.140625 24.800781 19.226562 Z M 24.800781 19.226562 "/>
<path style=" stroke:none;fill-rule:nonzero;fill:rgb(0%,0%,0%);fill-opacity:1;" d="M 13.164062 22.214844 C 12.816406 22.46875 12.78125 22.796875 13.082031 23.085938 C 13.414062 23.40625 13.898438 23.230469 14.003906 22.746094 C 14.101562 22.324219 13.523438 21.957031 13.164062 22.214844 Z M 13.621094 22.464844 C 13.734375 22.570312 13.753906 22.71875 13.664062 22.84375 C 13.539062 23.03125 13.398438 23.050781 13.253906 22.902344 C 13.125 22.777344 13.117188 22.609375 13.238281 22.472656 C 13.347656 22.339844 13.488281 22.339844 13.621094 22.464844 Z M 13.621094 22.464844 "/>
<path style=" stroke:none;fill-rule:nonzero;fill:rgb(0%,0%,0%);fill-opacity:1;" d="M 15.257812 22.429688 C 15.269531 22.796875 15.265625 22.796875 15.007812 22.445312 C 14.863281 22.242188 14.742188 22.15625 14.628906 22.15625 C 14.570312 22.15625 14.566406 22.179688 14.554688 22.691406 C 14.550781 22.984375 14.554688 23.230469 14.570312 23.238281 C 14.582031 23.246094 14.636719 23.242188 14.695312 23.234375 L 14.796875 23.214844 L 14.789062 22.898438 C 14.773438 22.523438 14.761719 22.523438 15.097656 22.953125 C 15.289062 23.199219 15.339844 23.246094 15.40625 23.242188 L 15.484375 23.234375 L 15.484375 22.695312 C 15.484375 22.164062 15.484375 22.15625 15.414062 22.15625 C 15.378906 22.15625 15.324219 22.148438 15.296875 22.136719 C 15.25 22.117188 15.246094 22.148438 15.257812 22.429688 Z M 15.257812 22.429688 "/>
<path style=" stroke:none;fill-rule:nonzero;fill:rgb(0%,0%,0%);fill-opacity:1;" d="M 18.792969 22.152344 C 18.789062 22.160156 18.78125 22.304688 18.78125 22.476562 C 18.78125 22.851562 18.773438 22.847656 18.511719 22.445312 C 18.382812 22.242188 18.332031 22.191406 18.25 22.171875 C 18.195312 22.160156 18.144531 22.160156 18.132812 22.171875 C 18.117188 22.183594 18.105469 22.425781 18.101562 22.707031 C 18.097656 23.171875 18.101562 23.21875 18.148438 23.21875 C 18.179688 23.21875 18.234375 23.226562 18.273438 23.238281 C 18.34375 23.257812 18.34375 23.253906 18.34375 22.972656 C 18.34375 22.816406 18.355469 22.6875 18.367188 22.6875 C 18.382812 22.6875 18.464844 22.773438 18.554688 22.882812 C 18.757812 23.132812 18.839844 23.207031 18.945312 23.230469 L 19.03125 23.25 L 19.03125 22.765625 C 19.03125 22.496094 19.042969 22.25 19.0625 22.21875 C 19.089844 22.167969 19.078125 22.164062 18.949219 22.148438 C 18.871094 22.144531 18.804688 22.148438 18.792969 22.152344 Z M 18.792969 22.152344 "/>
<path style=" stroke:none;fill-rule:nonzero;fill:rgb(0%,0%,0%);fill-opacity:1;" d="M 16.09375 22.335938 C 16.09375 22.433594 16.101562 22.671875 16.117188 22.867188 L 16.132812 23.214844 L 16.476562 23.226562 L 16.8125 23.234375 L 16.8125 22.929688 L 16.570312 22.941406 L 16.335938 22.953125 L 16.339844 22.554688 L 16.347656 22.15625 L 16.09375 22.15625 Z M 16.09375 22.335938 "/>
<path style=" stroke:none;fill-rule:nonzero;fill:rgb(0%,0%,0%);fill-opacity:1;" d="M 19.625 22.6875 L 19.625 23.21875 L 19.984375 23.222656 C 20.179688 23.226562 20.363281 23.226562 20.382812 23.230469 C 20.410156 23.234375 20.421875 23.191406 20.421875 23.109375 L 20.421875 22.984375 L 20.148438 22.976562 L 19.871094 22.964844 L 19.882812 22.882812 L 19.890625 22.796875 L 20.136719 22.808594 C 20.382812 22.820312 20.382812 22.820312 20.367188 22.746094 C 20.351562 22.707031 20.34375 22.65625 20.34375 22.640625 C 20.34375 22.621094 20.25 22.613281 20.105469 22.617188 C 19.894531 22.628906 19.867188 22.625 19.886719 22.578125 C 19.898438 22.550781 19.90625 22.492188 19.90625 22.449219 C 19.90625 22.371094 19.914062 22.371094 20.117188 22.375 C 20.460938 22.382812 20.445312 22.386719 20.429688 22.273438 L 20.421875 22.171875 L 20.023438 22.164062 L 19.625 22.152344 Z M 19.625 22.6875 "/>
<path style=" stroke:none;fill-rule:nonzero;fill:rgb(0%,0%,0%);fill-opacity:1;" d="M 17.28125 22.558594 C 17.28125 22.761719 17.289062 22.992188 17.300781 23.074219 C 17.320312 23.214844 17.320312 23.21875 17.4375 23.21875 L 17.554688 23.21875 L 17.546875 22.1875 L 17.28125 22.1875 Z M 17.28125 22.558594 "/>
<path style=" stroke:none;fill-rule:nonzero;fill:rgb(0%,0%,0%);fill-opacity:1;" d="M 9.382812 22.492188 L 8.90625 22.503906 L 8.90625 22.574219 C 8.90625 22.628906 8.929688 22.65625 8.984375 22.667969 C 9.070312 22.691406 11.292969 22.683594 11.679688 22.664062 C 11.90625 22.648438 11.910156 22.648438 11.898438 22.570312 L 11.890625 22.484375 L 10.875 22.484375 C 10.316406 22.480469 9.644531 22.488281 9.382812 22.492188 Z M 9.382812 22.492188 "/>
<path style=" stroke:none;fill-rule:nonzero;fill:rgb(0%,0%,0%);fill-opacity:1;" d="M 21.375 22.5625 L 21.375 22.65625 L 24.40625 22.65625 L 24.40625 22.582031 C 24.40625 22.539062 24.382812 22.496094 24.355469 22.488281 C 24.328125 22.476562 23.648438 22.46875 22.839844 22.46875 L 21.375 22.46875 Z M 21.375 22.5625 "/>
</g>
</svg>
